<svg width="331" height="287" viewBox="0 0 331 287" fill="none" xmlns="http://www.w3.org/2000/svg">
<g clip-path="url(#clip0)">
<path d="M96.4815 226.284C95.9055 226.284 95.4855 226.152 95.2215 225.888C94.9575 225.624 94.8255 225.204 94.8255 224.628V220.416C94.8255 220.104 94.8615 219.84 94.9335 219.624C95.0295 219.408 95.1615 219.228 95.3295 219.084L98.9295 216.06C97.6575 215.676 96.6495 215.028 95.9055 214.116C95.1855 213.18 94.8255 211.848 94.8255 210.12V206.34C94.8255 205.26 95.0055 204.3 95.3655 203.46C95.7255 202.62 96.2415 201.912 96.9135 201.336L101.594 197.412C102.242 196.884 103.046 196.476 104.006 196.188C104.966 195.876 106.058 195.72 107.282 195.72H117.362C117.938 195.72 118.358 195.852 118.622 196.116C118.886 196.38 119.018 196.8 119.018 197.376V201.66C119.018 201.972 118.97 202.236 118.874 202.452C118.802 202.668 118.682 202.848 118.514 202.992L115.274 205.692C116.786 206.028 117.998 206.664 118.91 207.6C119.846 208.512 120.314 209.94 120.314 211.884V215.664C120.314 216.744 120.134 217.704 119.774 218.544C119.414 219.384 118.886 220.092 118.19 220.668L113.546 224.556C112.874 225.108 112.058 225.528 111.098 225.816C110.138 226.128 109.058 226.284 107.858 226.284H96.4815ZM112.502 222C114.806 222 116.618 221.46 117.938 220.38C119.282 219.276 119.954 217.704 119.954 215.664V211.884C119.954 209.868 119.438 208.428 118.406 207.564C117.374 206.7 116.018 206.148 114.338 205.908L108.974 205.188C108.662 205.164 108.422 205.044 108.254 204.828C108.086 204.612 108.002 204.348 108.002 204.036C108.002 203.724 108.086 203.472 108.254 203.28C108.422 203.064 108.662 202.956 108.974 202.956H117.362C117.818 202.956 118.142 202.86 118.334 202.668C118.55 202.452 118.658 202.116 118.658 201.66V197.376C118.658 196.92 118.55 196.596 118.334 196.404C118.142 196.188 117.818 196.08 117.362 196.08H107.282C104.954 196.08 103.13 196.632 101.81 197.736C100.49 198.816 99.8295 200.376 99.8295 202.416V206.196C99.8295 208.212 100.334 209.652 101.342 210.516C102.374 211.38 103.73 211.932 105.41 212.172L110.81 212.928C111.122 212.952 111.35 213.06 111.494 213.252C111.662 213.444 111.746 213.744 111.746 214.152C111.746 214.44 111.662 214.692 111.494 214.908C111.35 215.1 111.122 215.196 110.81 215.196H101.126C100.67 215.196 100.334 215.304 100.118 215.52C99.9255 215.712 99.8295 216.036 99.8295 216.492V220.704C99.8295 221.16 99.9255 221.496 100.118 221.712C100.334 221.904 100.67 222 101.126 222H112.502ZM115.418 199.32V199.68H107.426C106.418 199.68 105.614 199.956 105.014 200.508C104.414 201.06 104.114 201.756 104.114 202.596V205.548C104.114 206.388 104.282 206.976 104.618 207.312C104.954 207.648 105.398 207.864 105.95 207.96L113.546 209.508C114.266 209.652 114.854 209.964 115.31 210.444C115.79 210.924 116.03 211.788 116.03 213.036V215.124C116.03 216.18 115.67 217.056 114.95 217.752C114.23 218.424 113.258 218.76 112.034 218.76H103.07V218.4H112.034C113.138 218.4 114.014 218.1 114.662 217.5C115.334 216.876 115.67 216.084 115.67 215.124V213.036C115.67 211.908 115.466 211.14 115.058 210.732C114.674 210.3 114.146 210.012 113.474 209.868L105.878 208.32C105.254 208.2 104.738 207.96 104.33 207.6C103.946 207.216 103.754 206.532 103.754 205.548V202.596C103.754 201.636 104.09 200.856 104.762 200.256C105.434 199.632 106.322 199.32 107.426 199.32H115.418ZM134.722 226.284H128.89C128.314 226.284 127.894 226.152 127.63 225.888C127.366 225.624 127.234 225.204 127.234 224.628V207.312H122.302C121.726 207.312 121.306 207.18 121.042 206.916C120.778 206.652 120.646 206.232 120.646 205.656V201.3C120.646 200.988 120.682 200.724 120.754 200.508C120.85 200.292 120.982 200.112 121.15 199.968L125.794 196.044C125.914 195.948 126.07 195.876 126.262 195.828C126.478 195.756 126.706 195.72 126.946 195.72H145.954C146.53 195.72 146.95 195.852 147.214 196.116C147.478 196.38 147.61 196.8 147.61 197.376V201.732C147.61 202.044 147.562 202.308 147.466 202.524C147.394 202.74 147.274 202.92 147.106 203.064L142.426 206.952C142.33 207.048 142.174 207.132 141.958 207.204C141.766 207.276 141.55 207.312 141.31 207.312H141.022V220.704C141.022 221.016 140.974 221.28 140.878 221.496C140.806 221.712 140.686 221.892 140.518 222.036L135.838 225.924C135.742 226.02 135.586 226.104 135.37 226.176C135.178 226.248 134.962 226.284 134.722 226.284ZM139.366 222C139.822 222 140.146 221.904 140.338 221.712C140.554 221.496 140.662 221.16 140.662 220.704V203.028H145.954C146.41 203.028 146.734 202.932 146.926 202.74C147.142 202.524 147.25 202.188 147.25 201.732V197.376C147.25 196.92 147.142 196.596 146.926 196.404C146.734 196.188 146.41 196.08 145.954 196.08H126.946C126.49 196.08 126.154 196.188 125.938 196.404C125.746 196.596 125.65 196.92 125.65 197.376V201.732C125.65 202.188 125.746 202.524 125.938 202.74C126.154 202.932 126.49 203.028 126.946 203.028H132.238V220.704C132.238 221.16 132.334 221.496 132.526 221.712C132.742 221.904 133.078 222 133.534 222H139.366ZM136.27 218.76V199.68H128.89V199.32H144.01V199.68H136.63V218.76H136.27ZM169.677 224.556C168.837 225.276 167.661 225.828 166.149 226.212C164.637 226.62 162.693 226.824 160.317 226.824C157.965 226.824 156.033 226.572 154.521 226.068C153.033 225.588 151.857 224.94 150.993 224.124C150.153 223.308 149.565 222.372 149.229 221.316C148.917 220.26 148.761 219.168 148.761 218.04V206.844C148.761 205.74 148.917 204.72 149.229 203.784C149.541 202.824 150.105 202.008 150.921 201.336L155.601 197.448C156.441 196.728 157.605 196.176 159.093 195.792C160.605 195.384 162.561 195.18 164.961 195.18C167.313 195.18 169.233 195.372 170.721 195.756C172.233 196.14 173.409 196.68 174.249 197.376C175.113 198.048 175.701 198.864 176.013 199.824C176.325 200.76 176.481 201.792 176.481 202.92V215.196C176.481 216.3 176.325 217.32 176.013 218.256C175.701 219.192 175.137 219.996 174.321 220.668L169.677 224.556ZM176.121 215.196V202.92C176.121 201.816 175.953 200.82 175.617 199.932C175.305 199.02 174.729 198.24 173.889 197.592C173.073 196.944 171.933 196.44 170.469 196.08C169.029 195.72 167.193 195.54 164.961 195.54C162.729 195.54 160.881 195.72 159.417 196.08C157.953 196.44 156.801 196.944 155.961 197.592C155.145 198.24 154.569 199.02 154.233 199.932C153.921 200.82 153.765 201.816 153.765 202.92V215.196C153.765 216.3 153.921 217.308 154.233 218.22C154.569 219.108 155.145 219.876 155.961 220.524C156.801 221.148 157.953 221.64 159.417 222C160.881 222.36 162.729 222.54 164.961 222.54C167.193 222.54 169.029 222.36 170.469 222C171.933 221.64 173.073 221.148 173.889 220.524C174.729 219.876 175.305 219.108 175.617 218.22C175.953 217.308 176.121 216.3 176.121 215.196ZM172.197 214.368C172.197 215.808 171.681 216.984 170.649 217.896C169.617 218.784 167.697 219.228 164.889 219.228C162.081 219.228 160.173 218.784 159.165 217.896C158.157 216.984 157.653 215.808 157.653 214.368V203.748C157.653 202.308 158.157 201.144 159.165 200.256C160.173 199.344 162.081 198.888 164.889 198.888C167.697 198.888 169.617 199.344 170.649 200.256C171.681 201.144 172.197 202.308 172.197 203.748V214.368ZM158.013 214.368C158.013 215.712 158.493 216.804 159.453 217.644C160.413 218.46 162.225 218.868 164.889 218.868C167.553 218.868 169.377 218.46 170.361 217.644C171.345 216.804 171.837 215.712 171.837 214.368V203.748C171.837 202.404 171.345 201.324 170.361 200.508C169.377 199.668 167.553 199.248 164.889 199.248C162.225 199.248 160.413 199.668 159.453 200.508C158.493 201.324 158.013 202.404 158.013 203.748V214.368ZM161.937 213.9V204.216C161.937 203.76 162.117 203.376 162.477 203.064C162.837 202.728 163.665 202.56 164.961 202.56C166.257 202.56 167.085 202.728 167.445 203.064C167.805 203.376 167.985 203.76 167.985 204.216V213.9C167.985 214.38 167.805 214.788 167.445 215.124C167.085 215.436 166.257 215.592 164.961 215.592C163.665 215.592 162.837 215.436 162.477 215.124C162.117 214.788 161.937 214.38 161.937 213.9ZM162.297 213.9C162.297 214.14 162.345 214.356 162.441 214.548C162.537 214.716 162.717 214.86 162.981 214.98V208.14C162.981 207.9 162.933 207.696 162.837 207.528C162.741 207.336 162.561 207.192 162.297 207.096V213.9ZM196.386 199.68H188.538V210.084H196.386C197.874 210.084 198.87 209.724 199.374 209.004C199.878 208.284 200.13 207.264 200.13 205.944V203.424C200.13 202.32 199.818 201.42 199.194 200.724C198.594 200.028 197.658 199.68 196.386 199.68ZM192.426 202.56H195.126C195.75 202.56 196.17 202.728 196.386 203.064C196.602 203.376 196.71 203.772 196.71 204.252V205.476C196.71 205.956 196.602 206.364 196.386 206.7C196.17 207.012 195.75 207.168 195.126 207.168H192.426V202.56ZM188.538 218.76H188.178V199.32H196.386C197.778 199.32 198.81 199.716 199.482 200.508C200.154 201.276 200.49 202.248 200.49 203.424V205.908C200.49 207.012 200.346 207.924 200.058 208.644C199.77 209.34 199.194 209.82 198.33 210.084H198.726C200.19 210.084 201.282 210.42 202.002 211.092C202.722 211.74 203.082 212.688 203.082 213.936V218.76H202.722V213.936C202.722 212.76 202.398 211.884 201.75 211.308C201.102 210.708 200.094 210.408 198.726 210.408H188.538V218.76ZM191.13 222C191.586 222 191.91 221.904 192.102 221.712C192.318 221.496 192.426 221.16 192.426 220.704V213.648H197.466C197.97 213.648 198.318 213.78 198.51 214.044C198.726 214.284 198.834 214.668 198.834 215.196V220.704C198.834 221.16 198.93 221.496 199.122 221.712C199.338 221.904 199.674 222 200.13 222H205.71C206.166 222 206.49 221.904 206.682 221.712C206.898 221.496 207.006 221.16 207.006 220.704V213.072C207.006 211.56 206.598 210.348 205.782 209.436C204.99 208.524 203.946 207.996 202.65 207.852C203.394 207.54 203.91 207.036 204.198 206.34C204.51 205.62 204.666 204.756 204.666 203.748V202.092C204.666 200.316 204.15 198.876 203.118 197.772C202.11 196.644 200.262 196.08 197.574 196.08H185.586C185.13 196.08 184.794 196.188 184.578 196.404C184.386 196.596 184.29 196.92 184.29 197.376V220.704C184.29 221.16 184.386 221.496 184.578 221.712C184.794 221.904 185.13 222 185.586 222H191.13ZM192.282 222.036L187.602 225.924C187.506 226.02 187.35 226.104 187.134 226.176C186.942 226.248 186.726 226.284 186.486 226.284H180.942C180.366 226.284 179.946 226.152 179.682 225.888C179.418 225.624 179.286 225.204 179.286 224.628V201.3C179.286 200.988 179.322 200.724 179.394 200.508C179.49 200.292 179.622 200.112 179.79 199.968L184.434 196.044C184.554 195.948 184.71 195.876 184.902 195.828C185.118 195.756 185.346 195.72 185.586 195.72H197.574C200.43 195.72 202.386 196.32 203.442 197.52C204.498 198.696 205.026 200.22 205.026 202.092V203.748C205.026 204.636 204.918 205.416 204.702 206.088C204.486 206.736 204.138 207.264 203.658 207.672H203.622C204.75 207.984 205.65 208.608 206.322 209.544C207.018 210.48 207.366 211.656 207.366 213.072V220.704C207.366 221.016 207.318 221.28 207.222 221.496C207.15 221.712 207.03 221.892 206.862 222.036L202.182 225.924C202.086 226.02 201.93 226.104 201.714 226.176C201.522 226.248 201.306 226.284 201.066 226.284H195.486C194.91 226.284 194.49 226.152 194.226 225.888C193.962 225.624 193.83 225.204 193.83 224.628V219.12C193.83 218.736 193.758 218.448 193.614 218.256C193.47 218.04 193.206 217.932 192.822 217.932H192.786V220.704C192.786 221.016 192.738 221.28 192.642 221.496C192.57 221.712 192.45 221.892 192.282 222.036ZM227.986 226.284H211.282C210.706 226.284 210.286 226.152 210.022 225.888C209.758 225.624 209.626 225.204 209.626 224.628V201.3C209.626 200.988 209.662 200.724 209.734 200.508C209.83 200.292 209.962 200.112 210.13 199.968L214.774 196.044C214.894 195.948 215.05 195.876 215.242 195.828C215.458 195.756 215.686 195.72 215.926 195.72H232.63C233.206 195.72 233.626 195.852 233.89 196.116C234.154 196.38 234.286 196.8 234.286 197.376V201.588C234.286 201.9 234.238 202.164 234.142 202.38C234.07 202.596 233.95 202.776 233.782 202.92L230.686 205.476C230.926 205.596 231.094 205.776 231.19 206.016C231.31 206.256 231.37 206.568 231.37 206.952V210.804C231.37 211.116 231.322 211.38 231.226 211.596C231.154 211.812 231.034 211.992 230.866 212.136L227.662 214.836H232.63C233.206 214.836 233.626 214.968 233.89 215.232C234.154 215.496 234.286 215.916 234.286 216.492V220.704C234.286 221.016 234.238 221.28 234.142 221.496C234.07 221.712 233.95 221.892 233.782 222.036L229.102 225.924C229.006 226.02 228.85 226.104 228.634 226.176C228.442 226.248 228.226 226.284 227.986 226.284ZM232.63 222C233.086 222 233.41 221.904 233.602 221.712C233.818 221.496 233.926 221.16 233.926 220.704V216.492C233.926 216.036 233.818 215.712 233.602 215.52C233.41 215.304 233.086 215.196 232.63 215.196H222.694V212.1H229.714C230.17 212.1 230.494 212.004 230.686 211.812C230.902 211.596 231.01 211.26 231.01 210.804V206.952C231.01 206.496 230.902 206.172 230.686 205.98C230.494 205.764 230.17 205.656 229.714 205.656H222.694V202.884H232.63C233.086 202.884 233.41 202.788 233.602 202.596C233.818 202.38 233.926 202.044 233.926 201.588V197.376C233.926 196.92 233.818 196.596 233.602 196.404C233.41 196.188 233.086 196.08 232.63 196.08H215.926C215.47 196.08 215.134 196.188 214.918 196.404C214.726 196.596 214.63 196.92 214.63 197.376V220.704C214.63 221.16 214.726 221.496 214.918 221.712C215.134 221.904 215.47 222 215.926 222H232.63ZM230.686 218.4V218.76H218.554V199.32H230.686V199.68H218.914V208.716H227.77V209.076H218.914V218.4H230.686Z" fill="white"/>
<path d="M79.4038 158H56.0758C54.2518 158 52.9078 157.616 52.0438 156.848C51.2758 155.984 50.8918 154.64 50.8918 152.816V82.112H29.7238C27.8998 82.112 26.5558 81.728 25.6918 80.96C24.9238 80.096 24.5398 78.752 24.5398 76.928V59.504C24.5398 57.68 24.9238 56.384 25.6918 55.616C26.5558 54.752 27.8998 54.32 29.7238 54.32H105.756C107.58 54.32 108.876 54.752 109.644 55.616C110.508 56.384 110.94 57.68 110.94 59.504V76.928C110.94 78.752 110.508 80.096 109.644 80.96C108.876 81.728 107.58 82.112 105.756 82.112H84.5878V152.816C84.5878 154.64 84.1558 155.984 83.2918 156.848C82.5238 157.616 81.2278 158 79.4038 158ZM156.762 84.56L149.994 106.448H172.602L165.834 84.56C165.45 83.696 165.018 83.072 164.538 82.688C164.154 82.304 163.674 82.112 163.098 82.112H159.498C158.922 82.112 158.394 82.304 157.914 82.688C157.53 83.072 157.146 83.696 156.762 84.56ZM148.554 152.816C148.554 154.64 148.122 155.984 147.258 156.848C146.49 157.616 145.194 158 143.37 158H122.202C120.378 158 119.034 157.616 118.17 156.848C117.402 155.984 117.018 154.64 117.018 152.816V114.8C117.018 111.92 117.45 108.608 118.314 104.864C119.274 101.12 120.714 96.752 122.634 91.76L135.162 59.072C135.738 57.44 136.602 56.24 137.754 55.472C139.002 54.704 140.586 54.32 142.506 54.32H181.242C183.066 54.32 184.554 54.704 185.706 55.472C186.954 56.24 187.866 57.44 188.442 59.072L200.97 91.76C202.89 96.752 204.282 101.12 205.146 104.864C206.106 108.608 206.586 111.92 206.586 114.8V152.816C206.586 154.64 206.154 155.984 205.29 156.848C204.522 157.616 203.226 158 201.402 158H179.658C177.738 158 176.298 157.616 175.338 156.848C174.474 155.984 174.042 154.64 174.042 152.816V132.656H148.554V152.816ZM297.662 158H226.238C224.414 158 223.07 157.616 222.206 156.848C221.438 155.984 221.054 154.64 221.054 152.816V133.52C221.054 131.696 221.342 130.112 221.918 128.768C222.494 127.328 223.406 125.936 224.654 124.592L259.646 82.112H228.83C227.006 82.112 225.662 81.728 224.798 80.96C224.03 80.096 223.646 78.752 223.646 76.928V59.504C223.646 57.68 224.03 56.384 224.798 55.616C225.662 54.752 227.006 54.32 228.83 54.32H295.07C296.894 54.32 298.19 54.752 298.958 55.616C299.822 56.384 300.254 57.68 300.254 59.504V80.96C300.254 82.88 299.966 84.56 299.39 86C298.814 87.344 297.902 88.688 296.654 90.032L263.246 130.496H297.662C299.486 130.496 300.782 130.928 301.55 131.792C302.414 132.56 302.846 133.856 302.846 135.68V152.816C302.846 154.64 302.414 155.984 301.55 156.848C300.782 157.616 299.486 158 297.662 158Z" fill="white"/>
</g>
<defs>
<clipPath id="clip0">
<rect width="331" height="287" fill="white"/>
</clipPath>
</defs>
</svg>
