<svg width="623" height="513" viewBox="0 0 623 513" fill="none" xmlns="http://www.w3.org/2000/svg">
<g clip-path="url(#clip0)">
<path opacity="0.18" d="M622.558 332.963C618.877 375.325 593.107 416.399 553.447 438.281C526.401 453.189 495.609 459.184 464.244 463.86L457.944 464.773C449.191 466.06 440.405 467.266 431.668 468.585C422.096 470.019 412.574 471.567 403.199 473.473C357.255 482.744 313.537 500.52 267.479 508.845C263.438 509.579 259.38 510.247 255.306 510.817C248.598 511.762 241.775 512.446 234.887 512.739C230.453 512.967 225.986 513.049 221.536 513C218.787 513 216.038 512.87 213.355 512.739C208.054 512.479 202.785 512.022 197.566 511.338C191.921 510.621 186.342 509.709 180.877 508.389C172.312 506.477 163.938 503.794 155.86 500.373C149.131 497.536 142.684 494.078 136.603 490.043C128.704 484.828 121.61 478.494 115.545 471.241C104.55 458.011 97.7277 442.256 88.1889 428.081C60.9959 387.707 11.0604 358.624 1.5543 311.896C-7.39549 268.003 23.9042 225.266 61.045 196.721C98.1858 168.176 142.624 147.842 176.034 115.566C232.089 61.4733 285.935 -21.0016 380.963 4.95303C442.123 21.7022 584.534 109.733 604.299 167.524C612.741 192.175 602.204 218.977 605.297 244.671C607.309 261.323 614.95 276.882 619.237 293.143C622.63 306.128 623.754 319.598 622.558 332.963V332.963Z" fill="#64FFDA"/>
<path d="M221.536 512.984C218.787 512.984 216.038 512.853 213.355 512.723C208.054 512.462 202.786 512.006 197.566 511.322V511.126C197.795 500.487 189.909 491.004 189.893 480.365C189.893 481.245 205.125 478.882 206.45 478.557C211.997 477.204 214.762 475.689 216.267 482.141C218.558 492.373 218.067 503.012 221.536 512.984Z" fill="#C58150"/>
<path d="M180.828 508.373C172.28 506.463 163.923 503.786 155.86 500.373C153.651 494.426 150.952 488.544 150.952 482.272C150.952 483.151 166.184 480.789 167.526 480.447C173.056 479.094 175.821 477.579 177.343 484.031C179.094 492.064 179.192 500.373 180.828 508.373Z" fill="#C58150"/>
<path d="M141.822 481.734C139.567 480.396 137.643 478.57 136.194 476.39C135.845 475.899 135.595 475.346 135.458 474.76C135.404 473.968 135.498 473.172 135.736 472.414C137.258 465.75 134.787 458.924 133.838 452.162C132.889 445.401 133.462 438.574 132.202 431.894C131.4 427.804 128.929 420.489 133.707 417.491C134.995 416.835 136.435 416.532 137.879 416.611C150.969 416.171 164.058 412.961 177.016 411.218C183.627 410.239 190.312 409.835 196.994 410.012C200.222 410.073 203.438 410.439 206.598 411.104C210.263 411.984 208.987 413.597 209.314 416.969C209.616 418.973 210.165 420.933 210.95 422.802C212.443 427.376 213.538 432.069 214.222 436.83L219.507 468.341C219.703 469.179 219.753 470.044 219.654 470.899C219.494 471.625 219.212 472.319 218.82 472.952C215.79 477.778 211.028 481.274 205.502 482.728C200.005 484.152 194.271 484.419 188.666 483.51C187.924 483.483 187.209 483.227 186.62 482.777C185.131 481.408 186.62 478.752 185.655 476.96C184.853 479.062 186.113 481.848 184.673 483.477C183.853 484.265 182.795 484.763 181.663 484.895C174.589 486.169 167.381 486.541 160.213 486.003C155.726 485.945 151.268 485.281 146.96 484.031C145.161 483.473 143.436 482.702 141.822 481.734V481.734Z" fill="#64FFDA"/>
<path d="M219.524 470.834C219.37 471.562 219.088 472.257 218.689 472.887V472.887C215.658 477.705 210.904 481.199 205.387 482.663C199.897 484.087 194.168 484.353 188.568 483.445C187.822 483.41 187.105 483.155 186.506 482.711C186.506 482.711 186.506 482.711 186.506 482.711C186.105 482.307 185.876 481.764 185.868 481.196C185.721 479.844 186.244 478.182 185.59 476.944C185.445 477.32 185.357 477.715 185.328 478.117C185.148 479.974 185.77 482.043 184.592 483.477C183.778 484.263 182.724 484.756 181.598 484.878C174.524 486.157 167.316 486.535 160.148 486.003C155.661 485.947 151.202 485.284 146.895 484.031C145.117 483.465 143.414 482.688 141.823 481.718C139.569 480.384 137.649 478.556 136.211 476.373C135.855 475.887 135.604 475.332 135.474 474.744C135.412 473.951 135.506 473.154 135.752 472.398C137.258 465.734 134.787 458.907 133.838 452.146C132.889 445.384 133.462 438.557 132.202 431.877C131.4 427.788 128.93 420.472 133.691 417.474C134.979 416.819 136.419 416.515 137.863 416.595C150.952 416.155 164.042 412.945 177 411.202C183.617 410.222 190.307 409.818 196.994 409.996C200.223 410.058 203.438 410.423 206.598 411.088C210.247 411.967 208.987 413.58 209.298 416.953C209.6 418.957 210.149 420.916 210.934 422.786C212.435 427.358 213.53 432.052 214.206 436.814L219.524 468.276C219.662 469.123 219.662 469.987 219.524 470.834V470.834Z" fill="url(#paint0_linear)"/>
<path d="M274.515 253.176C275.103 251.812 275.832 250.512 276.691 249.299C278.378 247.724 280.613 246.865 282.925 246.903C285.209 246.966 287.492 246.731 289.715 246.203C288.131 248.274 286.914 250.6 286.115 253.079C285.906 254.21 285.638 255.331 285.313 256.435C284.689 257.96 283.545 259.218 282.081 259.987C280.618 260.756 278.93 260.986 277.313 260.638C276.216 260.361 274.875 259.889 274.139 260.638C273.935 260.922 273.764 261.228 273.631 261.551C273.367 261.989 273.003 262.36 272.568 262.632C272.134 262.905 271.641 263.072 271.13 263.119C270.618 263.167 270.103 263.094 269.625 262.906C269.147 262.719 268.72 262.422 268.379 262.04C265.516 258.455 273.075 255.718 274.515 253.176Z" fill="#64FFDA"/>
<path opacity="0.18" d="M446.328 428.847L460.039 407.259C456.788 415.206 452.145 422.516 446.328 428.847V428.847Z" fill="#64FFDA"/>
<path opacity="0.18" d="M622.558 332.963C618.877 375.325 593.107 416.399 553.447 438.281C526.401 453.189 495.609 459.184 464.244 463.86L457.944 464.773C456.554 462.166 455.298 459.491 454.181 456.757C452.771 453.755 451.938 450.516 451.727 447.209C451.937 443.254 452.926 439.378 454.639 435.804C461.904 417.73 469.163 399.65 476.417 381.565L460.055 407.291C465.503 395.137 469.479 381.972 476.678 370.763C492.238 346.486 523.244 330.144 525.927 301.469C527.563 283.546 517.042 266.536 516.486 248.533C515.946 231.278 524.667 214.969 525.878 197.748C527.808 171.679 512.788 146.62 514.506 120.552C514.834 115.664 516.143 110.206 520.347 107.648C527.939 103.053 536.971 111.476 540.44 119.639C543.839 127.664 545.548 136.298 545.463 145.007C545.463 149.732 544.841 154.539 545.872 159.15C548.211 169.561 558.208 176.893 560.99 187.206C563.068 194.978 560.744 203.173 558.372 210.863C555.999 218.554 553.463 226.668 555.394 234.505C557.325 242.341 565.211 249.347 572.934 247.148C574.385 246.794 575.686 245.99 576.648 244.851C577.698 243.233 578.266 241.351 578.284 239.425C578.949 232.538 579.615 225.641 580.28 218.733C597.394 233.397 598.278 260.394 589.639 281.184C584.73 293.045 577.269 307.155 584.845 317.566C596.969 316.572 611.023 316.947 618.779 326.25C620.419 328.254 621.697 330.525 622.558 332.963V332.963Z" fill="#64FFDA"/>
<path d="M452.152 343.521C452.152 343.521 436.249 301.664 457.061 269.111C477.873 236.557 484.876 223.637 481.178 209.707C470.036 167.492 495.461 134.759 495.461 134.759C495.461 134.759 496.509 163.695 505.851 187.467C515.194 211.238 515.194 233.69 505.851 258.634C496.509 283.579 486.217 276.198 494.398 309.859C502.579 343.521 480.932 381.777 472.604 396.212C464.276 410.648 458.075 431.356 458.075 431.356L452.152 343.521Z" fill="#64FFDA"/>
<path d="M452.152 343.521C452.152 343.521 436.249 301.664 457.061 269.111C477.873 236.557 484.876 223.637 481.178 209.707C470.036 167.492 495.461 134.759 495.461 134.759C495.461 134.759 496.509 163.695 505.851 187.467C515.194 211.238 515.194 233.69 505.851 258.634C496.509 283.579 486.217 276.198 494.398 309.859C502.579 343.521 480.932 381.777 472.604 396.212C464.276 410.648 458.075 431.356 458.075 431.356L452.152 343.521Z" fill="url(#paint1_linear)"/>
<path d="M470.592 375.162C470.592 375.162 468.841 340.246 492.107 320.987C515.373 301.729 523.701 293.827 524.323 282.601C526.221 248.549 553.005 230.285 553.005 230.285C553.005 230.285 546.82 252.036 548.096 271.946C549.373 291.856 543.908 308.523 530.966 324.849C518.024 341.174 512.068 333.191 510.138 360.205C508.207 387.218 482.814 410.452 473.128 419.218C463.442 427.983 453.87 441.865 453.87 441.865L470.592 375.162Z" fill="#64FFDA"/>
<path d="M470.592 375.162C470.592 375.162 468.841 340.246 492.107 320.987C515.373 301.729 523.701 293.827 524.323 282.601C526.221 248.549 553.005 230.285 553.005 230.285C553.005 230.285 546.82 252.036 548.096 271.946C549.373 291.856 543.908 308.523 530.966 324.849C518.024 341.174 512.068 333.191 510.138 360.205C508.207 387.218 482.814 410.452 473.128 419.218C463.442 427.983 453.87 441.865 453.87 441.865L470.592 375.162Z" fill="url(#paint2_linear)"/>
<path d="M267.479 363.154V508.829C263.438 509.562 259.38 510.23 255.306 510.801C248.598 511.746 241.775 512.43 234.887 512.723V363.154H267.479Z" fill="#64FFDA"/>
<path d="M464.244 362.6V463.86C453.413 465.49 442.499 466.956 431.668 468.585V362.6H464.244Z" fill="#64FFDA"/>
<path d="M267.479 363.154V508.829C265.27 509.562 263.045 510.23 260.82 510.801C257.155 511.748 253.417 512.391 249.645 512.723V363.154H267.479Z" fill="url(#paint3_linear)"/>
<path d="M452.153 362.6V463.86C445.346 465.49 438.474 466.956 431.668 468.585V362.6H452.153Z" fill="url(#paint4_linear)"/>
<path d="M415.862 269.013V269.355C415.874 273.971 415.513 278.581 414.782 283.139C413.594 291.104 410.913 298.775 406.88 305.754C406.683 306.112 406.471 306.471 406.258 306.813C403.972 310.54 401.26 313.99 398.175 317.094C385.479 329.867 367.088 336.01 347.454 336.01C329.62 336.01 313.962 331.008 302.558 320.613C299.532 317.879 296.846 314.794 294.557 311.424C290.401 305.254 287.397 298.387 285.689 291.155C283.984 284.015 283.155 276.695 283.219 269.355C283.219 268.361 283.219 267.384 283.219 266.39C283.301 263.75 283.464 261.046 283.726 258.243C284.284 252.437 285.196 246.669 286.458 240.973C292.545 213.063 306.681 184.501 324.761 169.984C332.418 163.842 340.762 160.209 349.516 160.209C386.084 160.372 415.731 223.637 415.862 269.013Z" fill="#64FFDA"/>
<path d="M415.862 269.013V269.355C415.879 273.971 415.524 278.58 414.799 283.139C413.597 291.103 410.911 298.773 406.88 305.754L406.274 306.813C403.988 310.544 401.27 313.994 398.175 317.094C385.479 329.867 367.088 336.01 347.454 336.01C329.637 336.01 313.962 330.991 302.558 320.613C299.537 317.875 296.851 314.79 294.557 311.424C290.401 305.254 287.397 298.387 285.689 291.155C283.984 284.015 283.155 276.695 283.219 269.355C283.219 268.361 283.219 267.384 283.219 266.39C283.301 263.75 283.464 261.046 283.726 258.243C284.284 252.437 285.196 246.669 286.458 240.973C289.86 225.257 295.607 210.138 303.507 196.118C309.577 185.512 316.793 176.371 324.777 170.05C332.418 163.907 340.779 160.274 349.516 160.274C366.908 160.274 382.763 174.628 394.592 194.57C407.681 216.599 415.862 245.274 415.862 269.013Z" fill="url(#paint5_linear)"/>
<path d="M415.862 269.42C415.862 284.557 412.345 297.004 406.275 306.894C394.216 315.709 378.738 319.929 362.295 319.929C325.661 319.929 298.059 298.748 298.059 253.274C298.059 226.228 308.563 192.778 324.794 170.098C332.435 163.956 340.796 160.323 349.533 160.323C386.166 160.355 415.862 223.947 415.862 269.42Z" fill="#64FFDA"/>
<path d="M415.862 269.42C415.862 284.557 412.328 297.004 406.258 306.894C394.2 315.725 378.738 319.929 362.278 319.929C325.644 319.929 298.042 298.748 298.042 253.274C298.042 226.814 308.105 194.196 323.747 171.581C324.074 171.076 324.434 170.587 324.777 170.098C332.435 163.956 340.779 160.323 349.532 160.323C358.777 160.323 367.53 164.363 375.547 171.125C399.272 191.263 415.862 235.417 415.862 269.42Z" fill="url(#paint6_linear)"/>
<path d="M394.592 194.668C393.225 194.196 391.979 193.428 390.944 192.42C390.411 191.911 389.743 191.562 389.019 191.415C388.295 191.268 387.544 191.328 386.853 191.589C385.365 192.404 385.315 194.44 384.857 196.069C384.343 197.71 383.287 199.13 381.862 200.099C380.437 201.069 378.726 201.532 377.004 201.414C373.355 201.055 370.574 198.155 367.89 195.662C365.207 193.169 361.657 190.774 358.073 191.752C355.079 192.583 353.28 195.483 351.152 197.731C347.373 201.707 341.156 203.906 336.231 201.495C331.306 199.084 328.59 192.941 323.223 192.306C317.857 191.67 313.537 196.966 308.203 197.194C306.566 197.217 304.944 196.872 303.458 196.183C309.529 185.577 316.744 176.436 324.729 170.115C332.369 163.972 340.73 160.339 349.467 160.339C366.941 160.372 382.796 174.726 394.592 194.668Z" fill="url(#paint7_linear)"/>
<path d="M293.429 217.772L307.483 222.578L326.839 214.252L343.119 222.578L359.84 214.252L375.237 224.321L391.091 214.252L406.209 219.287L410.005 230.904L393.283 224.11L371.277 233.967L357.386 224.11L341.581 234.847L324.418 222.578L303.966 237.47L289.567 229.144L293.429 217.772Z" fill="#64FFDA"/>
<path d="M293.429 217.772L307.483 222.578L326.839 214.252L343.119 222.578L359.84 214.252L375.237 224.321L391.091 214.252L406.209 219.287L410.005 230.904L393.283 224.11L371.277 233.967L357.386 224.11L341.581 234.847L324.418 222.578L303.966 237.47L289.567 229.144L293.429 217.772Z" fill="white"/>
<path opacity="0.74" d="M415.863 269.013V269.355C415.875 273.971 415.514 278.581 414.783 283.139C411.62 280.972 408.726 278.44 406.16 275.595C404.279 273.51 402.381 271.131 399.616 270.447C396.556 269.665 393.349 271.294 390.977 273.412C388.604 275.53 386.739 278.153 384.187 280.043C382.407 281.345 380.365 282.249 378.202 282.693C376.039 283.138 373.806 283.112 371.654 282.618C367.514 281.64 364.013 279.001 360.38 276.834C356.748 274.667 352.461 272.858 348.306 273.803C342.252 275.188 338.996 281.64 333.989 285.29C330.862 287.453 327.117 288.553 323.311 288.427C319.506 288.3 315.842 286.955 312.866 284.589C309.463 281.738 306.665 277.306 302.215 277.062C298.076 276.817 294.82 280.32 292.48 283.774C290.566 286.544 288.537 289.624 285.657 291.155C283.952 284.015 283.123 276.695 283.187 269.355C283.187 268.361 283.187 267.384 283.187 266.39C283.286 266.416 283.381 266.461 283.465 266.52C285.604 264.145 288.48 262.55 291.634 261.989C294.788 261.428 298.041 261.933 300.873 263.425C304.015 265.2 306.355 268.101 309.349 270.121C311.639 271.633 314.248 272.603 316.973 272.956C319.699 273.309 322.469 273.036 325.072 272.158C331.061 270.088 335.445 265.038 339.225 259.97C341.81 256.467 347.569 257.249 351.758 258.471C355.912 259.882 359.689 262.217 362.802 265.298C366.631 268.785 370.656 273.054 375.891 273.086C381.585 273.086 385.921 267.97 388.244 262.805C389.193 260.72 390.077 258.406 392.04 257.201C393.384 256.527 394.857 256.149 396.36 256.093C400.581 255.653 405.326 255.36 408.565 258.097C411.805 260.834 412.459 266.145 415.814 268.997L415.863 269.013Z" fill="white"/>
<path d="M406.896 305.819C406.7 306.177 406.487 306.536 406.275 306.878C403.989 310.605 401.277 314.055 398.192 317.159C394.638 317.408 391.067 317.106 387.606 316.263C382.141 314.845 377.184 311.717 371.604 310.707C359.48 308.507 347.651 316.686 335.331 316.263C330.848 316.116 326.512 314.813 322.078 314.161C317.644 313.509 312.883 313.542 308.989 315.79C306.649 317.159 304.816 319.26 302.526 320.678C299.5 317.944 296.814 314.859 294.525 311.489C299.398 311.013 304.106 309.478 308.318 306.992C313.046 304.108 317.922 300.198 323.419 300.963C326.283 301.355 328.786 303.016 331.404 304.222C335.682 306.295 340.391 307.333 345.148 307.253C347.875 307.292 350.575 306.701 353.034 305.526C354.801 304.597 356.306 303.277 357.942 302.267C361.526 300.181 365.78 299.676 369.903 299.22C371.89 298.885 373.92 298.885 375.907 299.22C379.18 299.97 381.732 302.479 384.645 304.108C391.32 307.986 399.223 307.481 406.896 305.819Z" fill="white"/>
<path d="M320.736 258.618C325.598 258.618 329.539 254.694 329.539 249.852C329.539 245.011 325.598 241.087 320.736 241.087C315.875 241.087 311.934 245.011 311.934 249.852C311.934 254.694 315.875 258.618 320.736 258.618Z" fill="white"/>
<path d="M359.513 255.865C364.374 255.865 368.316 251.94 368.316 247.099C368.316 242.258 364.374 238.333 359.513 238.333C354.651 238.333 350.71 242.258 350.71 247.099C350.71 251.94 354.651 255.865 359.513 255.865Z" fill="white"/>
<path d="M391.909 251.873C396.77 251.873 400.712 247.948 400.712 243.107C400.712 238.266 396.77 234.342 391.909 234.342C387.047 234.342 383.106 238.266 383.106 243.107C383.106 247.948 387.047 251.873 391.909 251.873Z" fill="white"/>
<path d="M294.558 249.852C294.558 251.173 294.259 252.476 293.682 253.664C293.106 254.853 292.267 255.897 291.229 256.718C290.191 257.539 288.98 258.115 287.686 258.405C286.393 258.694 285.05 258.689 283.759 258.39C284.317 252.583 285.23 246.816 286.492 241.119C288.691 241.303 290.74 242.303 292.234 243.92C293.728 245.538 294.557 247.655 294.558 249.852V249.852Z" fill="white"/>
<path d="M294.541 293.11C294.21 293.226 293.916 293.428 293.69 293.697C293.518 293.987 293.432 294.321 293.445 294.658L293.314 296.173C293.257 296.491 293.257 296.817 293.314 297.135C293.516 297.525 293.837 297.84 294.231 298.037C294.625 298.233 295.072 298.299 295.506 298.226C296.933 298.032 298.326 297.643 299.646 297.07C303.621 295.998 307.737 295.542 311.852 295.717C312.702 295.717 313.701 295.587 314.126 294.854C315.582 292.247 308.481 290.894 306.927 290.829C302.678 290.651 298.444 291.431 294.541 293.11V293.11Z" fill="white"/>
<path d="M340.697 289.395C338.963 289.766 337.43 290.765 336.394 292.198C336.203 292.486 336.132 292.837 336.198 293.175C336.41 293.778 337.212 293.876 337.834 293.86L356.453 293.241C356.897 293.272 357.343 293.2 357.755 293.032C358.166 292.864 358.534 292.603 358.828 292.271C359.123 291.938 359.336 291.543 359.452 291.115C359.568 290.687 359.583 290.238 359.497 289.803C359.038 287.978 357.386 287.799 355.766 287.62C350.674 287.174 345.544 287.779 340.697 289.395V289.395Z" fill="white"/>
<path d="M386.051 285.632C383.152 285.468 380.244 285.709 377.412 286.349C376.66 286.561 375.776 286.935 375.629 287.685C375.592 288.038 375.65 288.394 375.796 288.718C375.943 289.041 376.173 289.32 376.464 289.526C377.867 290.631 379.584 291.27 381.372 291.351C383.155 291.497 384.939 291.351 386.722 291.53C390.665 291.856 394.788 293.518 398.421 291.97C398.628 291.889 398.813 291.761 398.961 291.595C400.45 289.575 396.817 286.479 395.099 285.958C392.4 285.11 388.849 285.648 386.051 285.632Z" fill="white"/>
<path d="M464.26 336.059H234.887V363.137H464.26V336.059Z" fill="#64FFDA"/>
<path d="M375.563 171.158C345.507 177.772 328.213 173.113 323.763 171.597C324.09 171.092 324.45 170.604 324.793 170.115C332.451 163.972 340.795 160.339 349.549 160.339C358.793 160.355 367.579 164.396 375.563 171.158Z" fill="#64FFDA"/>
<path d="M208.643 309.012C209.685 309.398 210.637 309.991 211.441 310.756C212.22 311.764 212.712 312.963 212.864 314.226C214.358 321.709 214.005 329.442 211.833 336.759C211.733 337.224 211.526 337.659 211.228 338.03C210.865 338.308 210.446 338.503 209.999 338.601C209.552 338.7 209.089 338.699 208.643 338.6C203.573 338.147 198.637 336.737 194.097 334.445C189.7 332.217 185.721 329.252 182.333 325.68C176.509 319.651 152.883 293.257 163.321 286.463C172.402 280.597 200.74 305.281 208.643 309.012Z" fill="#64FFDA"/>
<path d="M202.082 321.509C199.02 321.589 195.973 321.044 193.131 319.906C190.289 318.768 187.711 317.062 185.557 314.894C185.884 320.694 186.391 326.918 190.122 331.382C194.539 336.678 202.098 337.9 208.986 338.6C209.438 338.693 209.907 338.642 210.328 338.454C210.651 338.218 210.891 337.887 211.015 337.509C211.736 335.886 212.085 334.125 212.037 332.352C211.989 330.579 211.546 328.838 210.739 327.257C209.933 325.675 208.783 324.292 207.373 323.208C205.964 322.124 204.329 321.365 202.589 320.988" fill="url(#paint8_linear)"/>
<path d="M162.618 277.827C162.209 273.119 161.881 267.302 156.515 265.673C154.523 265.149 152.443 265.055 150.412 265.396C147.009 265.852 141.2 254.659 139.384 257.543C138.157 259.498 140.137 274.292 140.121 276.589C140.107 280.776 140.657 284.947 141.757 288.988C142.033 290.229 142.52 291.413 143.197 292.491C143.968 293.501 144.922 294.358 146.011 295.017C147.926 296.378 150.114 297.311 152.424 297.754C154.748 298.145 162.34 299.253 164.254 297.9C167.33 295.75 163.223 290.194 163.354 286.495C163.283 283.594 163.037 280.7 162.618 277.827V277.827Z" fill="#C58150"/>
<path d="M151.361 283.53C153.473 285.792 156.051 287.57 158.92 288.744C160.213 289.265 161.931 289.558 162.765 288.451C163.154 287.787 163.304 287.011 163.19 286.251C163.029 283.002 162.519 279.779 161.669 276.638L158.544 274.096C157.96 273.672 157.488 273.113 157.169 272.467C157.077 272.091 156.91 271.736 156.678 271.424C156.399 271.177 156.051 271.018 155.68 270.968C153.761 270.722 151.887 270.201 150.117 269.42C148.923 268.72 148.007 267.791 146.731 267.107C145.454 266.422 142.068 264.451 141.053 265.706C140.039 266.96 142.362 271.652 143.082 272.793C144.015 274.243 145.569 275.367 146.6 276.817C147.631 278.267 148.841 280.353 150.134 282.015C150.527 282.585 150.936 283.074 151.361 283.53Z" fill="url(#paint9_linear)"/>
<path d="M174.463 275.677C173.22 277.869 171.265 279.576 168.919 280.517C166.574 281.459 163.977 281.579 161.554 280.858C154.046 279.237 147.347 275.046 142.624 269.013C137.911 262.939 135.747 255.283 136.586 247.653C137.687 239.111 141.688 231.2 147.925 225.234C149.329 224.013 150.965 223.086 152.735 222.507C154.506 221.927 156.375 221.708 158.233 221.861C161.943 222.198 165.582 223.082 169.031 224.484C171.811 225.311 174.42 226.624 176.738 228.362C182.35 233.087 182.808 241.511 181.859 248.761C181.335 252.867 182.055 257.103 181.237 261.029C180.126 266.361 177.809 271.37 174.463 275.677V275.677Z" fill="#C58150"/>
<path d="M184.297 228.167C184.64 231.637 183.822 235.58 180.926 237.535C180.054 234.337 178.576 231.335 176.574 228.688C175.788 227.429 174.556 226.511 173.122 226.114C171.688 226.04 170.264 226.391 169.032 227.124C164.476 229.137 159.534 230.132 154.552 230.04C152.408 230.04 150.019 229.845 148.367 231.213C147.58 231.971 146.957 232.88 146.534 233.885L140.497 245.893C139.84 247.057 139.292 248.279 138.861 249.543C137.994 252.704 138.55 256.5 136.227 258.814C134.963 255.498 132.84 252.575 130.075 250.341C128.41 249.229 126.86 247.958 125.444 246.545C123.186 243.889 122.696 240.207 122.45 236.769C122.09 231.539 122.156 225.951 124.921 221.47C127.686 216.99 134.05 214.366 138.452 217.267C140.742 212.379 143.573 206.937 148.76 205.34C156.188 203.059 166.25 209.055 172.909 211.857C179.568 214.66 183.528 221.291 184.297 228.167Z" fill="#0A0A0A"/>
<path d="M129.911 249.901C129.231 249.792 128.535 249.842 127.879 250.048C127.222 250.255 126.624 250.612 126.131 251.091C124.888 252.639 125.738 254.969 126.933 256.565C128.382 258.49 130.228 260.084 132.348 261.239C134.467 262.394 136.811 263.084 139.22 263.262C139.393 263.295 139.571 263.289 139.741 263.244C139.911 263.199 140.069 263.116 140.202 263.001C140.361 262.731 140.408 262.409 140.333 262.105C139.449 255.637 137.421 250.423 129.911 249.901Z" fill="#C58150"/>
<path d="M206.614 417.083C204.051 418.713 201.222 419.882 198.253 420.538L197.075 420.863C191.07 422.493 185.033 424.236 178.93 425.491C174.657 426.391 170.328 427.001 165.972 427.315C155.369 428.016 144.342 426.387 135.327 420.798C134.374 420.277 133.539 419.567 132.872 418.713C132.4 417.933 132.047 417.087 131.825 416.204C130.811 412.815 129.6 409.377 128.553 405.906C128.554 405.879 128.554 405.852 128.553 405.825C127.763 403.158 127.177 400.434 126.802 397.678C125.886 393.426 124.953 389.141 124.119 384.872C122.859 378.485 121.648 372.115 120.601 365.695C120.388 364.408 120.192 363.137 120.012 361.85C119.832 360.563 119.636 359.276 119.456 357.989C119.276 356.702 119.096 355.235 118.949 353.85C118.376 348.783 118.818 342.934 117.607 338.03C116.691 334.348 114.204 331.203 113.549 327.293C112.764 322.617 113.926 317.843 115.071 313.248C116.56 307.285 118.131 301.192 121.616 296.157C123.925 292.967 126.783 290.209 130.058 288.011C131.632 286.967 133.271 286.026 134.967 285.192C135.545 284.956 136.094 284.656 136.603 284.296C137.29 283.742 137.192 282.764 138.501 282.813C139.572 282.986 140.556 283.507 141.299 284.296L148.645 290.52C150.291 292.059 152.147 293.359 154.159 294.381C156.222 295.413 158.493 295.97 160.802 296.01C161.537 296.004 162.252 295.763 162.84 295.323C163.429 294.883 163.861 294.268 164.074 293.567C164.147 293.113 164.147 292.651 164.074 292.198C163.895 290.445 163.583 288.707 163.141 287C163.043 286.675 162.978 286.235 163.272 286.039C163.42 285.952 163.591 285.912 163.763 285.925C165.238 286.046 166.674 286.461 167.984 287.147C169.44 287.766 170.978 288.125 172.451 288.776C176.766 290.6 180.351 293.797 182.644 297.868C184.68 301.374 186.143 305.179 186.98 309.143C187.309 310.671 187.56 312.216 187.733 313.77C189.369 329.069 194.621 343.618 198.613 358.396C200.775 365.974 202.296 373.718 203.162 381.548C203.8 388.066 201.526 396.212 205.878 401.589C207.841 403.984 210.246 406.363 210.557 409.458C210.612 410.959 210.279 412.449 209.588 413.785C208.898 415.12 207.873 416.256 206.614 417.083V417.083Z" fill="#64FFDA"/>
<path d="M126.835 397.727C126.33 396.688 125.945 395.595 125.69 394.469C124.932 391.341 124.418 388.16 124.152 384.954C125.003 389.141 125.919 393.426 126.835 397.727Z" fill="#64FFDA"/>
<path d="M166.07 262.838C165.83 262.84 165.593 262.901 165.383 263.017C165.184 263.197 165.051 263.438 165.007 263.702C164.719 265.406 165.1 267.156 166.07 268.589C166.516 269.442 167.205 270.145 168.05 270.61C168.694 270.868 169.397 270.947 170.083 270.838C170.769 270.729 171.412 270.436 171.944 269.991C173.351 268.899 176.1 264.646 174.627 262.968C173.155 261.29 167.903 262.74 166.07 262.838Z" fill="white"/>
<path d="M178.947 425.425C174.674 426.326 170.344 426.936 165.988 427.25C155.386 427.951 144.358 426.321 135.343 420.733C134.391 420.212 133.555 419.502 132.889 418.647C132.417 417.867 132.064 417.022 131.842 416.138C130.827 412.749 129.616 409.312 128.569 405.841C128.571 405.814 128.571 405.787 128.569 405.76C128.487 405.271 128.389 404.782 128.275 404.31C127.784 402.094 127.309 399.878 126.819 397.662C125.902 393.41 124.97 389.125 124.135 384.856C122.826 378.485 121.632 372.099 120.617 365.679C120.405 364.392 120.208 363.121 120.028 361.834C119.848 360.547 119.652 359.26 119.472 357.973C119.292 356.685 119.112 355.219 118.965 353.834C118.327 348.588 117.869 343.309 117.623 338.014C117.623 337.362 117.623 336.71 117.525 336.058C117.427 333.566 117.378 331.04 117.427 328.515C117.671 328.313 117.928 328.128 118.196 327.961C124.315 323.985 130.827 325.191 135.817 318.315C134.517 346.156 139.481 373.933 150.346 399.617C153.202 405.985 157.301 411.723 162.405 416.497C165.653 419.77 169.825 421.98 174.365 422.835H174.84C176.672 423.21 178.75 423.796 178.947 425.425Z" fill="url(#paint10_linear)"/>
<path d="M108.379 384.823C109.704 390.347 112.06 396 116.723 399.259C119.103 400.867 121.896 401.76 124.77 401.832C127.645 401.905 130.48 401.153 132.938 399.666C138.353 396.277 140.906 389.89 143.049 383.878C145.192 377.866 147.516 371.463 152.719 367.765C154.6 366.429 156.76 365.532 158.691 364.262C159.695 363.688 160.575 362.922 161.28 362.007C161.985 361.093 162.501 360.048 162.797 358.934C162.897 358.504 162.907 358.058 162.829 357.624C162.75 357.19 162.583 356.777 162.339 356.408C161.929 355.938 161.406 355.579 160.818 355.366C155.337 353.019 149.037 354.893 143.376 356.767L130.827 360.97C131.449 358.347 131.956 355.252 130.172 353.231C129.33 352.485 128.328 351.941 127.241 351.642C126.155 351.342 125.014 351.295 123.906 351.504C118.818 351.96 110.31 354.29 107.953 359.455C104.714 366.575 106.628 377.573 108.379 384.823Z" fill="#C58150"/>
<path d="M133.952 254.838C133.818 254.397 133.589 253.991 133.281 253.648C132.973 253.305 132.594 253.032 132.169 252.85C131.313 252.506 130.39 252.361 129.469 252.427C129.111 252.412 128.754 252.473 128.422 252.606C128.097 252.785 127.826 253.047 127.636 253.365C127.447 253.682 127.345 254.045 127.342 254.415C127.35 255.154 127.553 255.879 127.931 256.516C128.861 258.342 130.298 259.863 132.071 260.899C132.804 261.355 133.632 261.639 134.492 261.73C135.948 261.812 138.321 260.231 136.799 258.797C136.243 258.276 135.327 258.194 134.754 257.624C134.181 257.054 134.214 255.848 133.952 254.838Z" fill="url(#paint11_linear)"/>
<path d="M101 355.936C100.885 357.33 101.223 358.724 101.965 359.911C102.603 360.548 103.373 361.037 104.221 361.344C105.069 361.651 105.975 361.768 106.874 361.687C115.775 361.948 124.315 358.429 132.545 355.17C133.512 354.833 134.387 354.275 135.098 353.541C135.731 352.645 136.119 351.601 136.226 350.51L140.71 326.071C141.551 322.328 141.952 318.501 141.904 314.666C141.511 307.481 137.241 298.959 130.713 295.359C122.417 290.78 118.196 300.084 114.351 306.405C105.432 321.387 100.813 338.52 101 355.936Z" fill="#64FFDA"/>
<path d="M129.927 361.296C127.391 363.17 124.92 365.125 122.483 367.129C119.758 369.047 117.518 371.568 115.938 374.494C114.58 377.492 114.842 381.483 117.394 383.569C118.43 384.264 119.593 384.749 120.817 384.995C122.041 385.241 123.302 385.244 124.528 385.003C134.999 383.764 143.458 375.83 153.635 373.06C159.28 371.431 165.219 371.626 171.027 370.909C174.457 370.489 177.845 369.78 181.155 368.791C184.822 367.953 188.157 366.054 190.743 363.333C194.474 358.771 192.919 350.82 188.354 347.398C177.376 339.154 160.949 344.238 149.643 349.354C142.665 352.628 136.056 356.632 129.927 361.296V361.296Z" fill="white"/>
<path d="M129.927 361.296C127.391 363.17 124.92 365.125 122.483 367.129C119.758 369.047 117.518 371.568 115.938 374.494C114.58 377.492 114.842 381.483 117.394 383.569C118.43 384.264 119.593 384.749 120.817 384.995C122.041 385.241 123.302 385.244 124.528 385.003C134.999 383.764 143.458 375.83 153.635 373.06C159.28 371.431 165.219 371.626 171.027 370.909C174.457 370.489 177.845 369.78 181.155 368.791C184.822 367.953 188.157 366.054 190.743 363.333C194.474 358.771 192.919 350.82 188.354 347.398C177.376 339.154 160.949 344.238 149.643 349.354C142.665 352.628 136.056 356.632 129.927 361.296V361.296Z" fill="url(#paint12_linear)"/>
<path d="M129.076 358.901C126.524 360.791 124.053 362.746 121.615 364.75C118.895 366.666 116.656 369.181 115.071 372.099C113.713 375.113 113.975 379.088 116.543 381.174C117.573 381.876 118.733 382.366 119.955 382.615C121.177 382.864 122.437 382.867 123.661 382.624C134.132 381.369 142.591 373.451 152.768 370.665C158.413 369.133 164.352 369.231 170.16 368.53C173.589 368.104 176.977 367.396 180.288 366.412C183.958 365.572 187.294 363.667 189.876 360.938C193.606 356.376 192.052 348.441 187.487 345.02C176.509 336.759 160.081 341.859 148.792 346.975C141.813 350.24 135.203 354.238 129.076 358.901V358.901Z" fill="white"/>
<path d="M127.081 362.144C126.522 362.167 125.97 362.277 125.445 362.469C124.925 362.717 124.483 363.102 124.165 363.581C123.848 364.06 123.668 364.617 123.645 365.19C123.618 366.345 124.04 367.466 124.823 368.319C124.977 368.466 125.09 368.652 125.15 368.856C125.281 369.589 124.021 369.752 123.743 370.486C123.694 370.7 123.694 370.923 123.743 371.137C123.883 372.103 124.31 373.006 124.97 373.728C125.734 374.566 126.797 375.075 127.932 375.145C128.494 375.172 129.054 375.069 129.571 374.846C130.087 374.623 130.545 374.285 130.909 373.858C131.162 373.472 131.452 373.112 131.776 372.783C132.081 372.568 132.398 372.373 132.725 372.196C133.154 371.888 133.47 371.45 133.626 370.947C133.782 370.445 133.771 369.905 133.593 369.41C133.38 368.889 132.987 368.4 133.085 367.781C133.168 367.52 133.321 367.287 133.53 367.108C133.738 366.93 133.992 366.813 134.263 366.771C134.823 366.692 135.372 366.55 135.9 366.347C136.348 366.102 136.682 365.692 136.829 365.204C136.976 364.716 136.924 364.19 136.685 363.74C136.418 363.108 135.98 362.561 135.419 362.161C134.859 361.762 134.198 361.524 133.511 361.476C131.352 361.518 129.201 361.741 127.081 362.144V362.144Z" fill="#64FFDA"/>
<path d="M145.487 351.52C144.964 351.602 144.375 351.797 144.211 352.286C144.162 352.564 144.224 352.85 144.383 353.084C144.541 353.318 144.785 353.482 145.062 353.541C145.602 353.648 146.158 353.648 146.698 353.541C147.259 353.416 147.846 353.516 148.334 353.818C149.103 354.437 149.07 355.903 149.97 356.148C150.658 356.311 151.263 355.659 151.901 355.333C152.768 355.004 153.714 354.941 154.617 355.154C155.531 355.36 156.489 355.233 157.317 354.795C158.069 354.274 158.282 352.938 157.464 352.498C157.176 352.371 156.862 352.315 156.548 352.335C155.569 352.324 154.59 352.378 153.619 352.498L153.783 350.543C153.825 350.427 153.825 350.3 153.783 350.184C153.729 350.127 153.662 350.083 153.589 350.054C153.515 350.026 153.436 350.015 153.357 350.022C152.67 350.022 151.999 349.94 151.312 349.94C151.188 349.915 151.06 349.915 150.936 349.94C150.298 350.25 150.936 351.569 150.298 351.814C149.659 352.058 149.07 351.244 148.547 351.162C147.515 351.133 146.484 351.254 145.487 351.52V351.52Z" fill="#64FFDA"/>
<path d="M149.038 358.722C148.645 358.722 148.432 359.211 148.4 359.602C148.449 359.986 148.449 360.375 148.4 360.759C148.007 361.932 146.207 361.769 145.373 362.681C144.538 363.594 145.373 365.809 144.424 366.966C144.146 367.292 143.704 367.618 143.851 368.009C143.998 368.4 144.195 368.367 144.44 368.465C145.487 368.856 146.829 369.182 147.582 368.351C148.334 367.52 148.056 366.722 148.498 366.103C149.218 364.995 150.837 365.06 152.163 365.093C153.55 365.153 154.94 365.049 156.302 364.783C156.946 364.71 157.557 364.462 158.069 364.066C158.317 363.858 158.487 363.572 158.549 363.255C158.612 362.938 158.564 362.609 158.413 362.323C157.906 361.606 156.777 361.785 155.942 361.818C155.798 361.836 155.653 361.802 155.533 361.72C154.617 360.954 155.419 359.455 153.57 358.999C153.046 358.869 152.392 359.178 151.852 359.178C150.925 358.967 149.985 358.814 149.038 358.722V358.722Z" fill="#64FFDA"/>
<path d="M169.964 345.46C169.964 346.437 171.142 346.975 172.108 347.089C173.089 347.018 174.073 347.169 174.987 347.529C176.002 348.164 176.247 349.5 176.623 350.608C176.668 350.741 176.741 350.863 176.836 350.967C176.981 351.081 177.158 351.15 177.343 351.162C178.423 351.276 179.65 350.804 180.616 351.39C180.878 351.606 181.129 351.834 181.368 352.074C181.673 352.332 182.033 352.517 182.42 352.616C182.807 352.716 183.211 352.726 183.603 352.648C183.995 352.57 184.364 352.404 184.682 352.164C185.001 351.923 185.261 351.614 185.442 351.26C185.543 351.075 185.595 350.867 185.595 350.657C185.595 350.447 185.543 350.239 185.442 350.054C185.289 349.864 185.093 349.713 184.87 349.614L182.546 348.295C182.001 348.054 181.536 347.664 181.205 347.17C181.053 346.834 180.933 346.485 180.845 346.128C180.043 343.83 177.409 343.456 175.331 343.847C174.202 343.961 169.915 344.466 169.964 345.46Z" fill="#64FFDA"/>
<path d="M237.177 326.462C241.955 322.047 256.484 285.73 258.562 284.345C259.56 283.709 265.352 282.145 266.137 281.233C266.781 280.275 267.049 279.115 266.89 277.974C266.761 275.5 266.315 273.053 265.565 270.691C265.247 270.017 265.2 269.248 265.434 268.54C265.672 268.211 265.983 267.941 266.344 267.751C266.704 267.562 267.104 267.458 267.512 267.449C270.915 266.927 273.304 265.95 272.42 262.137C272.155 260.609 271.537 259.162 270.614 257.912C269.691 256.662 268.489 255.643 267.103 254.936C263.454 253.307 259.151 254.643 255.649 256.565C253.055 257.816 250.971 259.915 249.743 262.512C248.401 266.064 249.841 270.137 248.827 273.803C248.183 275.73 247.203 277.528 245.931 279.115L231.402 299.579C227.982 304.466 224.252 309.501 218.738 311.733C214.467 313.476 209.379 313.362 205.648 316.1C204.212 317.192 203.091 318.642 202.399 320.305C201.706 321.967 201.467 323.782 201.705 325.566C204.798 345.427 229.34 333.68 237.177 326.462Z" fill="#C58150"/>
<path d="M257.891 263.245L216.055 289.314L216.889 291.269L259.806 268.638C259.806 268.638 262.734 263.245 257.891 263.245Z" fill="#64FFDA"/>
<path d="M219.049 470.068C219.029 471.015 218.925 471.958 218.738 472.887C215.707 477.705 210.953 481.199 205.436 482.663C199.945 484.087 194.216 484.353 188.616 483.445C187.871 483.41 187.153 483.155 186.554 482.711C186.554 482.711 186.554 482.711 186.554 482.711C186.282 482.233 186.068 481.725 185.916 481.196C185.601 480.209 185.42 479.184 185.376 478.149C185.335 477.525 185.335 476.9 185.376 476.276C185.294 473.161 184.799 470.072 183.904 467.086C183.348 464.349 184.967 458.239 183.986 456.301L186.129 460.569C191.037 453.107 190.138 443.282 188.321 434.501C190.173 435.579 191.746 437.073 192.917 438.863C194.087 440.654 194.822 442.691 195.062 444.814C195.509 449.059 195.282 453.348 194.392 457.523L198.711 457.441C199.398 462.133 201.787 466.386 204.143 470.475C204.305 471.144 204.624 471.764 205.074 472.286C205.524 472.807 206.092 473.214 206.732 473.474C207.371 473.733 208.063 473.837 208.751 473.778C209.439 473.718 210.103 473.497 210.688 473.131L219.049 470.068Z" fill="url(#paint13_linear)"/>
</g>
<defs>
<linearGradient id="paint0_linear" x1="141.839" y1="377.117" x2="223.598" y2="557.885" gradientUnits="userSpaceOnUse">
<stop offset="0.01"/>
<stop offset="0.13" stop-opacity="0.69"/>
<stop offset="1" stop-opacity="0"/>
</linearGradient>
<linearGradient id="paint1_linear" x1="24913.1" y1="60720.6" x2="18058.7" y2="59888.7" gradientUnits="userSpaceOnUse">
<stop offset="0.01"/>
<stop offset="0.13" stop-opacity="0.69"/>
<stop offset="1" stop-opacity="0"/>
</linearGradient>
<linearGradient id="paint2_linear" x1="-30440.2" y1="66640.2" x2="-15955.2" y2="63311.7" gradientUnits="userSpaceOnUse">
<stop offset="0.01"/>
<stop offset="0.13" stop-opacity="0.69"/>
<stop offset="1" stop-opacity="0"/>
</linearGradient>
<linearGradient id="paint3_linear" x1="3479.58" y1="28030.5" x2="-811.99" y2="40998.8" gradientUnits="userSpaceOnUse">
<stop offset="0.01"/>
<stop offset="0.13" stop-opacity="0.69"/>
<stop offset="1" stop-opacity="0"/>
</linearGradient>
<linearGradient id="paint4_linear" x1="6422.21" y1="20464.9" x2="4424.07" y2="30246.1" gradientUnits="userSpaceOnUse">
<stop offset="0.01"/>
<stop offset="0.13" stop-opacity="0.69"/>
<stop offset="1" stop-opacity="0"/>
</linearGradient>
<linearGradient id="paint5_linear" x1="18128.3" y1="33499.1" x2="29754.4" y2="30249.7" gradientUnits="userSpaceOnUse">
<stop offset="0.01"/>
<stop offset="0.13" stop-opacity="0.69"/>
<stop offset="1" stop-opacity="0"/>
</linearGradient>
<linearGradient id="paint6_linear" x1="430.539" y1="213.682" x2="293.052" y2="266.318" gradientUnits="userSpaceOnUse">
<stop offset="0.01" stop-color="white"/>
<stop offset="0.13" stop-color="white" stop-opacity="0.69"/>
<stop offset="1" stop-color="white" stop-opacity="0"/>
</linearGradient>
<linearGradient id="paint7_linear" x1="21712.7" y1="8952.34" x2="21675.6" y2="4859.5" gradientUnits="userSpaceOnUse">
<stop offset="0.01"/>
<stop offset="0.13" stop-opacity="0.69"/>
<stop offset="1" stop-opacity="0"/>
</linearGradient>
<linearGradient id="paint8_linear" x1="3593.58" y1="5344.72" x2="3955.46" y2="4966.37" gradientUnits="userSpaceOnUse">
<stop offset="0.01"/>
<stop offset="0.13" stop-opacity="0.69"/>
<stop offset="1" stop-opacity="0"/>
</linearGradient>
<linearGradient id="paint9_linear" x1="2847.49" y1="4031.55" x2="2607.74" y2="4381.49" gradientUnits="userSpaceOnUse">
<stop offset="0.01"/>
<stop offset="0.13" stop-opacity="0.69"/>
<stop offset="1" stop-opacity="0"/>
</linearGradient>
<linearGradient id="paint10_linear" x1="3963.58" y1="27015.3" x2="8045.07" y2="26301.6" gradientUnits="userSpaceOnUse">
<stop offset="0.01"/>
<stop offset="0.13" stop-opacity="0.69"/>
<stop offset="1" stop-opacity="0"/>
</linearGradient>
<linearGradient id="paint11_linear" x1="2266.46" y1="1517.34" x2="2211.1" y2="1570.92" gradientUnits="userSpaceOnUse">
<stop offset="0.01"/>
<stop offset="0.13" stop-opacity="0.69"/>
<stop offset="1" stop-opacity="0"/>
</linearGradient>
<linearGradient id="paint12_linear" x1="7127.1" y1="9754.48" x2="10816.5" y2="9754.48" gradientUnits="userSpaceOnUse">
<stop offset="0.01"/>
<stop offset="0.13" stop-opacity="0.69"/>
<stop offset="1" stop-opacity="0"/>
</linearGradient>
<linearGradient id="paint13_linear" x1="4141.85" y1="15149.9" x2="5565.9" y2="14572.8" gradientUnits="userSpaceOnUse">
<stop offset="0.01"/>
<stop offset="0.13" stop-opacity="0.69"/>
<stop offset="1" stop-opacity="0"/>
</linearGradient>
<clipPath id="clip0">
<rect width="623" height="513" fill="white"/>
</clipPath>
</defs>
</svg>
